<svg width="24" height="24" viewBox="0 0 24 24" fill="none" xmlns="http://www.w3.org/2000/svg">
<g id="Icon">
<path id="Vector" d="M5.0719 22.2034C4.44218 22.2034 3.90558 21.9817 3.4621 21.5382C3.01862 21.0947 2.79688 20.5581 2.79688 19.9284V6.0719C2.79688 5.44218 3.01862 4.90558 3.4621 4.4621C3.90558 4.01862 4.44218 3.79688 5.0719 3.79688H6.00015V1.79688H8.13765V3.79688H15.8626V1.79688H18.0001V3.79688H18.9284C19.5581 3.79688 20.0947 4.01862 20.5382 4.4621C20.9817 4.90558 21.2034 5.44218 21.2034 6.0719V19.9284C21.2034 20.5581 20.9817 21.0947 20.5382 21.5382C20.0947 21.9817 19.5581 22.2034 18.9284 22.2034H5.0719ZM5.0719 19.9284H18.9284V10.0001H5.0719V19.9284ZM5.0719 8.00015H18.9284V6.0719H5.0719V8.00015Z" fill="#2C2C2C"/>
</g>
</svg>
