<svg width="36" height="36" viewBox="0 0 36 36" fill="none" xmlns="http://www.w3.org/2000/svg">
<g id="salinity">
<mask id="mask0_51_1363" style="mask-type:alpha" maskUnits="userSpaceOnUse" x="0" y="0" width="36" height="36">
<rect id="Bounding box" width="36" height="36" fill="#D9D9D9"/>
</mask>
<g mask="url(#mask0_51_1363)">
<path id="salinity_2" d="M18 33.3049C14.488 33.3049 11.5591 32.1008 9.21351 29.6926C6.86788 27.2843 5.69507 24.2868 5.69507 20.7H9.10761C9.10761 23.3451 9.94756 25.5385 11.6275 27.2801C13.3074 29.0216 15.4319 29.8924 18.0012 29.8924C20.5705 29.8924 22.6947 29.0214 24.3737 27.2793C26.0528 25.5372 26.8924 23.3441 26.8924 20.7H30.3049C30.3049 24.2897 29.1321 27.288 26.7865 29.6948C24.4408 32.1016 21.512 33.3049 18 33.3049ZM7.28634 18.287C6.83637 18.287 6.45867 18.1348 6.15324 17.8305C5.84779 17.5261 5.69507 17.1489 5.69507 16.6989C5.69507 16.249 5.84727 15.8713 6.15167 15.5658C6.45604 15.2604 6.83322 15.1077 7.28319 15.1077C7.73314 15.1077 8.11084 15.2599 8.41629 15.5643C8.72172 15.8687 8.87443 16.2458 8.87443 16.6958C8.87443 17.1458 8.72224 17.5235 8.41787 17.8289C8.11347 18.1343 7.73629 18.287 7.28634 18.287ZM14.2336 18.287C13.7837 18.287 13.406 18.1348 13.1005 17.8305C12.7951 17.5261 12.6424 17.1489 12.6424 16.6989C12.6424 16.249 12.7946 15.8713 13.099 15.5658C13.4033 15.2604 13.7805 15.1077 14.2305 15.1077C14.6804 15.1077 15.0581 15.2599 15.3636 15.5643C15.669 15.8687 15.8217 16.2458 15.8217 16.6958C15.8217 17.1458 15.6695 17.5235 15.3652 17.8289C15.0608 18.1343 14.6836 18.287 14.2336 18.287ZM21.7516 18.287C21.3016 18.287 20.9239 18.1348 20.6185 17.8305C20.313 17.5261 20.1603 17.1489 20.1603 16.6989C20.1603 16.249 20.3125 15.8713 20.6169 15.5658C20.9213 15.2604 21.2985 15.1077 21.7484 15.1077C22.1984 15.1077 22.5761 15.2599 22.8815 15.5643C23.1869 15.8687 23.3396 16.2458 23.3396 16.6958C23.3396 17.1458 23.1875 17.5235 22.8831 17.8289C22.5787 18.1343 22.2015 18.287 21.7516 18.287ZM28.7168 18.287C28.2668 18.287 27.8891 18.1348 27.5837 17.8305C27.2782 17.5261 27.1255 17.1489 27.1255 16.6989C27.1255 16.249 27.2777 15.8713 27.5821 15.5658C27.8865 15.2604 28.2637 15.1077 28.7136 15.1077C29.1636 15.1077 29.5413 15.2599 29.8467 15.5643C30.1522 15.8687 30.3049 16.2458 30.3049 16.6958C30.3049 17.1458 30.1527 17.5235 29.8483 17.8289C29.5439 18.1343 29.1667 18.287 28.7168 18.287ZM10.7689 14.0096C10.319 14.0096 9.94128 13.8574 9.63583 13.553C9.33041 13.2486 9.17769 12.8714 9.17769 12.4215C9.17769 11.9715 9.32988 11.5938 9.63426 11.2884C9.93866 10.9829 10.3158 10.8302 10.7658 10.8302C11.2158 10.8302 11.5935 10.9824 11.8989 11.2868C12.2043 11.5912 12.3571 11.9683 12.3571 12.4183C12.3571 12.8683 12.2049 13.246 11.9005 13.5514C11.5961 13.8568 11.2189 14.0096 10.7689 14.0096ZM25.2342 14.0096C24.7842 14.0096 24.4065 13.8574 24.1011 13.553C23.7956 13.2486 23.6429 12.8714 23.6429 12.4215C23.6429 11.9715 23.7951 11.5938 24.0995 11.2884C24.4039 10.9829 24.7811 10.8302 25.231 10.8302C25.681 10.8302 26.0587 10.9824 26.3641 11.2868C26.6696 11.5912 26.8223 11.9683 26.8223 12.4183C26.8223 12.8683 26.6701 13.246 26.3657 13.5514C26.0613 13.8568 25.6841 14.0096 25.2342 14.0096ZM18.0016 13.7242C17.5516 13.7242 17.1739 13.572 16.8685 13.2677C16.563 12.9633 16.4103 12.5861 16.4103 12.1361C16.4103 11.6862 16.5625 11.3085 16.8669 11.003C17.1713 10.6976 17.5485 10.5449 17.9984 10.5449C18.4484 10.5449 18.8261 10.6971 19.1315 11.0015C19.4369 11.3059 19.5896 11.683 19.5896 12.133C19.5896 12.583 19.4375 12.9607 19.1331 13.2661C18.8287 13.5715 18.4515 13.7242 18.0016 13.7242ZM14.2426 9.75005C13.7926 9.75005 13.4149 9.59786 13.1095 9.29348C12.8041 8.98908 12.6514 8.61191 12.6514 8.16196C12.6514 7.71198 12.8035 7.33428 13.1079 7.02886C13.4123 6.72341 13.7895 6.57068 14.2394 6.57068C14.6894 6.57068 15.0671 6.72288 15.3725 7.02728C15.678 7.33166 15.8307 7.70883 15.8307 8.15881C15.8307 8.60876 15.6785 8.98646 15.3741 9.29191C15.0697 9.59733 14.6925 9.75005 14.2426 9.75005ZM21.7605 9.75005C21.3106 9.75005 20.9329 9.59786 20.6274 9.29348C20.322 8.98908 20.1693 8.61191 20.1693 8.16196C20.1693 7.71198 20.3215 7.33428 20.6258 7.02886C20.9302 6.72341 21.3074 6.57068 21.7574 6.57068C22.2073 6.57068 22.585 6.72288 22.8905 7.02728C23.1959 7.33166 23.3486 7.70883 23.3486 8.15881C23.3486 8.60876 23.1964 8.98646 22.892 9.29191C22.5877 9.59733 22.2105 9.75005 21.7605 9.75005ZM18.0016 5.82068C17.5516 5.82068 17.1739 5.66849 16.8685 5.36412C16.563 5.05972 16.4103 4.68254 16.4103 4.23259C16.4103 3.78262 16.5625 3.40492 16.8669 3.09949C17.1713 2.79407 17.5485 2.64136 17.9984 2.64136C18.4484 2.64136 18.8261 2.79354 19.1315 3.09792C19.4369 3.40229 19.5896 3.77947 19.5896 4.22944C19.5896 4.67939 19.4375 5.0571 19.1331 5.36255C18.8287 5.66797 18.4515 5.82068 18.0016 5.82068Z" fill="#2C2C2C"/>
</g>
</g>
</svg>
