<svg width="36" height="36" viewBox="0 0 36 36" fill="none" xmlns="http://www.w3.org/2000/svg">
<g id="brightness_high">
<mask id="mask0_57_1240" style="mask-type:alpha" maskUnits="userSpaceOnUse" x="0" y="0" width="36" height="36">
<rect id="Bounding box" width="36" height="36" fill="#D9D9D9"/>
</mask>
<g mask="url(#mask0_57_1240)">
<path id="brightness_high_2" d="M18 35.2907L12.9301 30.3048H5.69508V23.0698L0.709229 17.9999L5.69508 12.9301V5.69501H12.9301L18 0.700195L23.0698 5.69501H30.3049V12.9301L35.2997 17.9999L30.3049 23.0698V30.3048H23.0698L18 35.2907ZM17.9999 25.3923C20.0451 25.3923 21.7884 24.6716 23.23 23.2301C24.6716 21.7886 25.3924 20.0452 25.3924 18C25.3924 15.9549 24.6716 14.2115 23.2302 12.7699C21.7887 11.3283 20.0453 10.6075 18.0001 10.6075C15.9549 10.6075 14.2116 11.3283 12.77 12.7698C11.3284 14.2113 10.6076 15.9546 10.6076 17.9998C10.6076 20.045 11.3284 21.7884 12.7698 23.2299C14.2113 24.6715 15.9547 25.3923 17.9999 25.3923ZM18 30.5167L21.6244 26.8923H26.8924V21.6244L30.5168 17.9999L26.8924 14.3755V9.10754H21.6244L18 5.4831L14.3755 9.10754H9.10762V14.3755L5.48317 17.9999L9.10762 21.6244V26.8923H14.3755L18 30.5167Z" fill="#2C2C2C"/>
</g>
</g>
</svg>
