<svg width="36" height="36" viewBox="0 0 36 36" fill="none" xmlns="http://www.w3.org/2000/svg">
<g id="air">
<mask id="mask0_47_373" style="mask-type:alpha" maskUnits="userSpaceOnUse" x="0" y="0" width="36" height="36">
<rect id="Bounding box" width="36" height="36" fill="#D9D9D9"/>
</mask>
<g mask="url(#mask0_47_373)">
<path id="air_2" d="M17.25 30C16 30 14.9375 29.5625 14.0625 28.6875C13.1875 27.8125 12.75 26.75 12.75 25.5H15.75C15.75 25.925 15.8938 26.2812 16.1813 26.5688C16.4688 26.8563 16.825 27 17.25 27C17.675 27 18.0313 26.8563 18.3188 26.5688C18.6063 26.2812 18.75 25.925 18.75 25.5C18.75 25.075 18.6063 24.7188 18.3188 24.4313C18.0313 24.1438 17.675 24 17.25 24H3V21H17.25C18.5 21 19.5625 21.4375 20.4375 22.3125C21.3125 23.1875 21.75 24.25 21.75 25.5C21.75 26.75 21.3125 27.8125 20.4375 28.6875C19.5625 29.5625 18.5 30 17.25 30ZM3 15V12H23.25C23.9 12 24.4375 11.7875 24.8625 11.3625C25.2875 10.9375 25.5 10.4 25.5 9.75C25.5 9.1 25.2875 8.5625 24.8625 8.1375C24.4375 7.7125 23.9 7.5 23.25 7.5C22.6 7.5 22.0625 7.7125 21.6375 8.1375C21.2125 8.5625 21 9.1 21 9.75H18C18 8.275 18.5062 7.03125 19.5187 6.01875C20.5312 5.00625 21.775 4.5 23.25 4.5C24.725 4.5 25.9688 5.00625 26.9813 6.01875C27.9937 7.03125 28.5 8.275 28.5 9.75C28.5 11.225 27.9937 12.4688 26.9813 13.4813C25.9688 14.4938 24.725 15 23.25 15H3ZM27.75 27V24C28.4 24 28.9375 23.7875 29.3625 23.3625C29.7875 22.9375 30 22.4 30 21.75C30 21.1 29.7875 20.5625 29.3625 20.1375C28.9375 19.7125 28.4 19.5 27.75 19.5H3V16.5H27.75C29.225 16.5 30.4688 17.0062 31.4813 18.0187C32.4938 19.0312 33 20.275 33 21.75C33 23.225 32.4938 24.4688 31.4813 25.4813C30.4688 26.4937 29.225 27 27.75 27Z" fill="#2C2C2C"/>
</g>
</g>
</svg>
