<svg width="36" height="36" viewBox="0 0 36 36" fill="none" xmlns="http://www.w3.org/2000/svg">
<g id="rainy_light">
<mask id="mask0_51_1386" style="mask-type:alpha" maskUnits="userSpaceOnUse" x="0" y="0" width="36" height="36">
<rect id="Bounding box" width="36" height="36" fill="#D9D9D9"/>
</mask>
<g mask="url(#mask0_51_1386)">
<path id="rainy_light_2" d="M7.47881 17.9398C7.05599 18.1637 6.62243 18.198 6.17813 18.0425C5.73383 17.8871 5.39973 17.598 5.17583 17.1751L1.47064 9.76481C1.24674 9.34198 1.2125 8.90842 1.36793 8.46412C1.52338 8.01984 1.8125 7.68873 2.2353 7.47078C2.65815 7.25286 3.09171 7.22012 3.53599 7.37257C3.98029 7.52502 4.31141 7.81266 4.52936 8.23548L8.23451 15.6458C8.45244 16.0686 8.48668 16.5007 8.33723 16.942C8.18778 17.3833 7.90164 17.7159 7.47881 17.9398ZM12.7736 28.5295C12.3508 28.7534 11.9158 28.7891 11.4685 28.6367C11.0212 28.4843 10.6856 28.1936 10.4617 27.7648L7.50653 21.8545C7.28858 21.4317 7.25733 20.9996 7.41278 20.5583C7.5682 20.117 7.85733 19.7844 8.28015 19.5605C8.70298 19.3366 9.13505 19.3023 9.57638 19.4578C10.0177 19.6132 10.3503 19.9023 10.5742 20.3251L13.5383 26.2355C13.7563 26.6583 13.789 27.0904 13.6365 27.5317C13.4841 27.973 13.1965 28.3056 12.7736 28.5295ZM15.7949 20.9398C15.372 21.1637 14.9385 21.198 14.4942 21.0425C14.0499 20.8871 13.7158 20.598 13.4918 20.1751L8.28668 9.76481C8.06278 9.34198 8.02854 8.90842 8.18396 8.46412C8.33939 8.01984 8.62853 7.68873 9.05138 7.47078C9.4742 7.25286 9.90775 7.22012 10.352 7.37257C10.7963 7.52502 11.1304 7.81266 11.3544 8.23548L16.5595 18.6458C16.7774 19.0686 16.8102 19.5007 16.6578 19.942C16.5053 20.3833 16.2177 20.7159 15.7949 20.9398ZM19.0288 13.4398C18.606 13.6637 18.1724 13.6995 17.7281 13.547C17.2838 13.3946 16.9497 13.1039 16.7258 12.6751L15.2992 9.76481C15.0813 9.34198 15.05 8.90842 15.2054 8.46412C15.3609 8.01984 15.65 7.68575 16.0728 7.46182C16.4957 7.23792 16.923 7.20518 17.3548 7.36361C17.7866 7.52203 18.1144 7.81266 18.3383 8.23548L19.7935 11.1458C20.0114 11.5686 20.0442 12.0007 19.8917 12.442C19.7393 12.8833 19.4516 13.2159 19.0288 13.4398ZM19.9736 28.492C19.5508 28.7159 19.1158 28.7564 18.6685 28.6135C18.2212 28.4705 17.8856 28.1876 17.6617 27.7648L16.2065 24.8545C15.9826 24.4317 15.9499 23.9981 16.1083 23.5538C16.2667 23.1095 16.5573 22.7754 16.9802 22.5515C17.403 22.3336 17.8351 22.3023 18.2764 22.4578C18.7177 22.6132 19.0503 22.9023 19.2742 23.3251L20.7383 26.2265C20.9622 26.6493 20.9965 27.0766 20.841 27.5084C20.6856 27.9402 20.3965 28.2681 19.9736 28.492ZM26.9486 28.492C26.5258 28.7159 26.0923 28.7564 25.648 28.6135C25.2037 28.4705 24.8696 28.1876 24.6456 27.7648L19.4405 17.3545C19.2226 16.9317 19.1898 16.4996 19.3422 16.0583C19.4947 15.617 19.7823 15.2844 20.2052 15.0605C20.628 14.8366 21.0615 14.8023 21.5058 14.9578C21.9501 15.1132 22.2843 15.4023 22.5082 15.8251L27.7133 26.2265C27.9312 26.6493 27.964 27.0766 27.8115 27.5084C27.6591 27.9402 27.3715 28.2681 26.9486 28.492ZM29.2288 19.4398C28.806 19.6637 28.3709 19.698 27.9236 19.5425C27.4764 19.3871 27.1407 19.098 26.9168 18.6751L22.4617 9.76481C22.2378 9.34198 22.205 8.90842 22.3635 8.46412C22.5219 8.01984 22.8125 7.68575 23.2353 7.46182C23.6582 7.23792 24.0902 7.20518 24.5315 7.36361C24.9728 7.52203 25.3054 7.81266 25.5294 8.23548L29.9845 17.1458C30.2024 17.5686 30.2367 18.0007 30.0872 18.442C29.9378 18.8833 29.6516 19.2159 29.2288 19.4398ZM33.7736 28.5295C33.3508 28.7534 32.9158 28.7876 32.4685 28.6322C32.0212 28.4768 31.6856 28.1876 31.4617 27.7648L29.2565 23.3545C29.0326 22.9317 28.9999 22.4981 29.1583 22.0538C29.3167 21.6095 29.6073 21.2754 30.0302 21.0515C30.453 20.8276 30.8851 20.7948 31.3264 20.9533C31.7677 21.1117 32.1003 21.4023 32.3242 21.8251L34.5294 26.2355C34.7473 26.6583 34.7815 27.0904 34.6321 27.5317C34.4826 27.973 34.1965 28.3056 33.7736 28.5295Z" fill="#2C2C2C"/>
</g>
</g>
</svg>
