<svg width="24" height="24" viewBox="0 0 24 24" fill="none" xmlns="http://www.w3.org/2000/svg">
<g id="Icon">
<path id="Vector" d="M11.9998 16C13.2498 16 14.3123 15.5625 15.1873 14.6875C16.0623 13.8125 16.4998 12.75 16.4998 11.5C16.4998 10.25 16.0623 9.18752 15.1873 8.31252C14.3123 7.43752 13.2498 7.00002 11.9998 7.00002C10.7498 7.00002 9.68728 7.43752 8.81228 8.31252C7.93728 9.18752 7.49978 10.25 7.49978 11.5C7.49978 12.75 7.93728 13.8125 8.81228 14.6875C9.68728 15.5625 10.7498 16 11.9998 16ZM12.0008 14.0745C11.286 14.0745 10.678 13.8243 10.177 13.3239C9.67587 12.8235 9.42533 12.2159 9.42533 11.5011C9.42533 10.7862 9.67552 10.1783 10.1759 9.6772C10.6763 9.17611 11.2839 8.92557 11.9987 8.92557C12.7136 8.92557 13.3215 9.17576 13.8226 9.67615C14.3237 10.1765 14.5742 10.7841 14.5742 11.499C14.5742 12.2138 14.324 12.8218 13.8237 13.3228C13.3233 13.8239 12.7157 14.0745 12.0008 14.0745ZM11.9998 19.1853C9.51861 19.1853 7.26309 18.4863 5.2332 17.0881C3.2033 15.6899 1.73039 13.8272 0.814453 11.5C1.73039 9.17286 3.2033 7.31017 5.2332 5.91197C7.26309 4.51379 9.51861 3.8147 11.9998 3.8147C14.4809 3.8147 16.7365 4.51379 18.7664 5.91197C20.7963 7.31017 22.2692 9.17286 23.1851 11.5C22.2692 13.8272 20.7963 15.6899 18.7664 17.0881C16.7365 18.4863 14.4809 19.1853 11.9998 19.1853ZM12.0003 17C13.8793 17 15.6043 16.5032 17.1753 15.5095C18.7463 14.5159 19.9485 13.1794 20.7819 11.5C19.9485 9.82067 18.7462 8.48417 17.1748 7.49052C15.6034 6.49686 13.8782 6.00002 11.9993 6.00002C10.1203 6.00002 8.39524 6.49686 6.82423 7.49052C5.25321 8.48417 4.05104 9.82067 3.2177 11.5C4.05104 13.1794 5.25339 14.5159 6.82478 15.5095C8.39614 16.5032 10.1213 17 12.0003 17Z" fill="#2C2C2C"/>
</g>
</svg>
