<svg width="24" height="24" viewBox="0 0 24 24" fill="none" xmlns="http://www.w3.org/2000/svg">
<g id="tire_repair">
<mask id="mask0_57_2907" style="mask-type:alpha" maskUnits="userSpaceOnUse" x="0" y="0" width="24" height="24">
<rect id="Bounding box" width="24" height="24" fill="#D9D9D9"/>
</mask>
<g mask="url(#mask0_57_2907)">
<path id="tire_repair_2" d="M19.1076 7.90446C18.8203 7.90446 18.5768 7.80464 18.3772 7.60501C18.1776 7.40536 18.0777 7.16188 18.0777 6.87456C18.0777 6.73326 18.1079 6.60011 18.1682 6.47511C18.2286 6.35011 18.3021 6.24418 18.389 6.15733C18.5974 5.94888 19.0689 5.71668 19.8035 5.46071L20.9055 5.07674C20.7721 5.47202 20.6431 5.84032 20.5185 6.18163C20.4158 6.47235 20.3004 6.75453 20.172 7.02816C20.0437 7.30178 19.9282 7.48989 19.8256 7.59251C19.7383 7.67983 19.6321 7.75364 19.5071 7.81396C19.3821 7.87429 19.2489 7.90446 19.1076 7.90446ZM3.91035 21.2632C3.28471 21.2632 2.74914 21.0404 2.30362 20.5949C1.8581 20.1494 1.63535 19.6138 1.63535 18.9882V5.04196C1.63535 4.41633 1.8581 3.88075 2.30362 3.43524C2.74914 2.98972 3.28471 2.76696 3.91035 2.76696H9.63535C10.261 2.76696 10.7965 2.98972 11.2421 3.43524C11.6876 3.88075 11.9103 4.41633 11.9103 5.04196V13.1871C12.0683 13.1331 12.2319 13.0894 12.4012 13.0561C12.5704 13.0228 12.7481 13.0061 12.9343 13.0061C13.7915 13.0061 14.5237 13.3097 15.131 13.917C15.7382 14.5242 16.0419 15.2565 16.0419 16.1137V18.1615C16.0419 18.4489 16.1377 18.6883 16.3294 18.88C16.521 19.0717 16.7603 19.1675 17.0472 19.1675C17.3341 19.1675 17.5746 19.0717 17.7687 18.88C17.9628 18.6883 18.0598 18.4489 18.0598 18.1615V13.042H17.0478V11.5744C16.1239 11.1796 15.38 10.5626 14.816 9.72341C14.2521 8.88424 13.9701 7.93376 13.9701 6.87196C13.9701 5.45051 14.4712 4.23933 15.4734 3.23841C16.4756 2.23751 17.6876 1.73706 19.1095 1.73706C20.5315 1.73706 21.7429 2.23791 22.7438 3.23961C23.7447 4.24131 24.2451 5.45276 24.2451 6.87396C24.2451 7.93559 23.9625 8.88604 23.3971 9.72531C22.8318 10.5646 22.0865 11.1812 21.1614 11.5751V13.042H20.1495V18.1615C20.1495 19.0188 19.8468 19.75 19.2416 20.3553C18.6363 20.9605 17.9051 21.2632 17.0478 21.2632C16.1906 21.2632 15.4603 20.9605 14.8571 20.3553C14.2538 19.75 13.9522 19.0188 13.9522 18.1615V16.1137C13.9522 15.8253 13.8548 15.5835 13.6599 15.3884C13.465 15.1933 13.2235 15.0958 12.9354 15.0958C12.6473 15.0958 12.4045 15.1933 12.2068 15.3884C12.0092 15.5835 11.9103 15.8253 11.9103 16.1137V18.9882C11.9103 19.6138 11.6876 20.1494 11.2421 20.5949C10.7965 21.0404 10.261 21.2632 9.63535 21.2632H3.91035ZM19.1104 9.92239C19.9578 9.92239 20.6762 9.62579 21.2655 9.03261C21.8548 8.43944 22.1495 7.71916 22.1495 6.87176C22.1495 6.02436 21.8548 5.306 21.2655 4.71669C20.6762 4.12737 19.9578 3.83271 19.1104 3.83271C18.263 3.83271 17.5428 4.12737 16.9496 4.71669C16.3564 5.306 16.0598 6.02436 16.0598 6.87176C16.0598 7.71916 16.3564 8.43944 16.9496 9.03261C17.5428 9.62579 18.263 9.92239 19.1104 9.92239ZM3.731 19.1675H9.82067V17.2392L7.76687 19.2931V16.2887L9.82067 14.2349V12.1017L7.76687 14.1556V11.1512L9.82067 9.09738V6.96423L7.76687 9.01803V6.01369L8.91795 4.85663H4.6397L5.7848 6.01369V9.01803L3.731 6.96423V9.09738L5.7848 11.1512V14.1556L3.731 12.1017V14.2349L5.7848 16.2887V19.2931L3.731 17.2392V19.1675Z" fill="#2C2C2C"/>
</g>
</g>
</svg>
