<svg width="48" height="48" viewBox="0 0 48 48" fill="none" xmlns="http://www.w3.org/2000/svg">
<g id="Icon">
<path id="Vector" d="M28.0192 44.5057C27.4474 44.7963 26.8654 44.8399 26.273 44.6367C25.6806 44.4334 25.2391 44.0459 24.9485 43.4742L21.9485 37.4742C21.6579 36.9104 21.6163 36.3323 21.8235 35.7399C22.0308 35.1475 22.4183 34.706 22.986 34.4154C23.5538 34.1249 24.1339 34.0812 24.7263 34.2845C25.3186 34.4878 25.7601 34.8713 26.0507 35.435L29.0507 41.435C29.3413 42.0068 29.3849 42.5888 29.1817 43.1812C28.9784 43.7736 28.5909 44.2151 28.0192 44.5057ZM40.0192 44.5057C39.4474 44.7963 38.8654 44.8399 38.273 44.6367C37.6806 44.4334 37.2391 44.0459 36.9485 43.4742L33.9485 37.4742C33.6579 36.9104 33.6163 36.3323 33.8235 35.7399C34.0308 35.1475 34.4183 34.706 34.986 34.4154C35.5538 34.1249 36.1339 34.0812 36.7263 34.2845C37.3186 34.4878 37.7601 34.8713 38.0507 35.435L41.0507 41.435C41.3413 42.0068 41.3849 42.5888 41.1817 43.1812C40.9784 43.7736 40.5909 44.2151 40.0192 44.5057ZM16.0192 44.5057C15.4474 44.7963 14.8654 44.8399 14.273 44.6367C13.6806 44.4334 13.2391 44.0459 12.9485 43.4742L9.94851 37.4742C9.65794 36.9104 9.61628 36.3323 9.82351 35.7399C10.0308 35.1475 10.4183 34.706 10.986 34.4154C11.5538 34.1249 12.1339 34.0812 12.7263 34.2845C13.3186 34.4878 13.7601 34.8713 14.0507 35.435L17.0507 41.435C17.3413 42.0068 17.3849 42.5888 17.1817 43.1812C16.9784 43.7736 16.5909 44.2151 16.0192 44.5057ZM14.9996 32.0959C11.8945 32.0959 9.23911 30.993 7.03331 28.7872C4.82751 26.5814 3.72461 23.926 3.72461 20.8209C3.72461 18.0064 4.64924 15.5439 6.49851 13.4334C8.34778 11.3229 10.6384 10.0684 13.3703 9.6698C14.4688 7.7698 15.959 6.27415 17.8409 5.18285C19.7228 4.09155 21.7756 3.5459 23.9992 3.5459C27.0314 3.5459 29.6737 4.50423 31.9263 6.4209C34.1788 8.33756 35.5623 10.7372 36.0768 13.6198C38.4007 13.8676 40.348 14.8615 41.9187 16.6013C43.4893 18.3412 44.2746 20.4144 44.2746 22.8209C44.2746 25.3926 43.3729 27.5814 41.5694 29.3872C39.7659 31.193 37.576 32.0959 34.9996 32.0959H14.9996ZM14.9996 27.5459H34.9996C36.3226 27.5459 37.4409 27.0894 38.3544 26.1764C39.2679 25.2635 39.7246 24.1459 39.7246 22.8237C39.7246 21.5015 39.2679 20.383 38.3544 19.4682C37.4409 18.5533 36.3226 18.0959 34.9996 18.0959H31.7246V15.8209C31.7246 13.6965 30.9683 11.8779 29.4557 10.3651C27.943 8.8523 26.1246 8.0959 24.0005 8.0959C22.4557 8.0959 21.0469 8.51528 19.7741 9.35405C18.5012 10.1928 17.5434 11.3176 16.9007 12.7285L16.3324 14.0959H14.9116C13.084 14.1599 11.5209 14.84 10.2224 16.1362C8.92388 17.4324 8.27461 18.9926 8.27461 20.8169C8.27461 22.6732 8.93109 24.2588 10.2441 25.5736C11.5571 26.8885 13.1422 27.5459 14.9996 27.5459Z" fill="#2C2C2C"/>
</g>
</svg>
