<svg width="162" height="162" viewBox="0 0 162 162" fill="none" xmlns="http://www.w3.org/2000/svg">
<g id="Icon">
<path id="Vector" d="M78.0418 162.001L93.743 144.146L80.243 137.396L99.9793 114.751H119.562L103.861 132.605L117.361 139.355L97.6243 162.001H78.0418ZM35.6856 162.001L51.3866 144.146L37.8866 137.396L57.6231 114.751H77.2055L61.5043 132.605L75.0043 139.355L55.268 162.001H35.6856ZM50.6237 108.324C40.1441 108.324 31.182 104.601 23.7374 97.1568C16.2928 89.7122 12.5706 80.7501 12.5706 70.2705C12.5706 60.7716 15.6912 52.4607 21.9325 45.3377C28.1737 38.2148 35.9045 33.9807 45.1246 32.6356C48.8323 26.2231 53.8618 21.1752 60.2131 17.4921C66.5645 13.809 73.4925 11.9674 80.9972 11.9674C91.2308 11.9674 100.149 15.2018 107.751 21.6705C115.353 28.1393 120.023 36.238 121.759 45.9668C129.602 46.8033 136.174 50.1575 141.475 56.0295C146.776 61.9015 149.427 68.8985 149.427 77.0205C149.427 85.7001 146.383 93.0872 140.297 99.1818C134.21 105.276 126.819 108.324 118.124 108.324H50.6237ZM50.6237 92.9674H118.124C122.589 92.9674 126.363 91.4268 129.446 88.3455C132.529 85.2644 134.071 81.4926 134.071 77.0302C134.071 72.5677 132.529 68.7927 129.446 65.7052C126.363 62.6175 122.589 61.0737 118.124 61.0737H107.071V53.3955C107.071 46.2258 104.518 40.088 99.4128 34.9822C94.3077 29.8765 88.1707 27.3237 81.0017 27.3237C75.788 27.3237 71.0333 28.7391 66.7375 31.5699C62.4416 34.4007 59.2091 38.197 57.0399 42.9587L55.1217 47.5737H50.3265C44.1585 47.7897 38.8832 50.085 34.5006 54.4597C30.1181 58.8343 27.9268 64.1001 27.9268 70.257C27.9268 76.522 30.1424 81.8733 34.5737 86.3109C39.0051 90.7486 44.3551 92.9674 50.6237 92.9674Z" fill="#2C2C2C"/>
</g>
</svg>
