<svg width="48" height="48" viewBox="0 0 48 48" fill="none" xmlns="http://www.w3.org/2000/svg">
<g id="Icon">
<path id="Vector" d="M21.7246 10.1789V1.62891H26.2746V10.1789H21.7246ZM35.3594 15.8224L32.1768 12.6398L38.2094 6.55716L41.392 9.78976L35.3594 15.8224ZM37.8203 26.2746V21.7246H46.3703V26.2746H37.8203ZM38.2094 41.4039L32.1768 35.3474L35.3594 32.1648L41.442 38.1594L38.2094 41.4039ZM12.6398 15.8224L6.60721 9.78976L9.83981 6.56911L15.8225 12.6398L12.6398 15.8224ZM11.9996 37.7246H20.9757C21.7293 37.7246 22.3719 37.4588 22.9034 36.9273C23.4349 36.3958 23.7007 35.7532 23.7007 34.9996C23.7007 34.238 23.4433 33.5914 22.9284 33.0599C22.4135 32.5284 21.7753 32.2626 21.0138 32.2626H18.3203L17.2485 29.7072C16.8058 28.663 16.1063 27.8338 15.1502 27.2197C14.194 26.6055 13.1438 26.2985 11.9996 26.2985C10.4126 26.2985 9.06174 26.8519 7.94691 27.9588C6.83204 29.0657 6.27461 30.4126 6.27461 31.9996C6.27461 33.5945 6.83004 34.9474 7.94091 36.0583C9.05178 37.1691 10.4047 37.7246 11.9996 37.7246ZM11.9996 42.2746C9.15324 42.2746 6.72914 41.2737 4.72731 39.2719C2.72551 37.27 1.72461 34.8459 1.72461 31.9996C1.72461 29.1372 2.74744 26.7091 4.79311 24.7153C6.83874 22.7215 9.30069 21.7325 12.179 21.7485C14.171 21.7485 15.988 22.2921 17.6301 23.3795C19.2721 24.4668 20.5051 25.9191 21.329 27.7365C23.2782 27.7365 24.9192 28.4572 26.2518 29.8985C27.5844 31.3398 28.2507 33.0684 28.2507 35.0844C28.2319 37.0959 27.5196 38.7972 26.1138 40.1882C24.708 41.5791 23.0032 42.2746 20.9996 42.2746H11.9996ZM28.2507 35.0844C28.0282 34.3459 27.8038 33.6222 27.5773 32.9132C27.3509 32.2041 27.1224 31.4804 26.892 30.742C28.2405 30.1485 29.3213 29.2448 30.1344 28.0311C30.9474 26.8173 31.354 25.4735 31.354 23.9996C31.354 21.967 30.6364 20.2331 29.2012 18.798C27.7661 17.3628 26.0322 16.6452 23.9996 16.6452C22.167 16.6452 20.5605 17.2394 19.1801 18.4278C17.7996 19.6162 16.984 21.1228 16.7333 22.9474C15.9869 22.7329 15.2279 22.5331 14.4562 22.3479C13.6844 22.1628 12.9253 21.963 12.179 21.7485C12.6775 18.9028 14.0485 16.5825 16.292 14.7876C18.5355 12.9927 21.1047 12.0952 23.9996 12.0952C27.309 12.0952 30.1205 13.2519 32.4339 15.5653C34.7473 17.8787 35.904 20.6901 35.904 23.9996C35.904 26.4865 35.2045 28.7331 33.8056 30.7392C32.4067 32.7454 30.555 34.1938 28.2507 35.0844Z" fill="#2C2C2C"/>
</g>
</svg>
